<?xml version="1.0" encoding="UTF-8" standalone="no"?>
<!DOCTYPE svg PUBLIC "-//W3C//DTD SVG 20010904//EN" "http://www.w3.org/TR/2001/REC-SVG-20010904/DTD/svg10.dtd">
<svg version="1.0" xmlns="http://www.w3.org/2000/svg" width="550.000000pt" height="550.000000pt" viewBox="0 0 550.000000 550.000000" preserveAspectRatio="xMidYMid meet">
<metadata>
Created by potrace 1.11, written by Peter Selinger 2001-2013
</metadata>
<g transform="translate(0.000000,550.000000) scale(0.100000,-0.100000)" fill="#000000" stroke="none">
<path d="M2760 5245 l0 -53 -222 -113 c-123 -62 -248 -125 -278 -140 -30 -16 -58 -29 -62 -29 -5 0 -8 56 -8 125 l0 125 -430 0 -430 0 0 -348 0 -348 -272 -138 c-257 -130 -636 -325 -703 -360 -28 -15 70 -16 1207 -16 l1237 0 3 58 3 57 1188 0 c653 0 1187 1 1187 1 0 2 -182 95 -518 266 -341 173 -618 313 -1017 517 -165 84 -363 184 -440 223 -77 38 -149 74 -160 81 -11 6 -80 41 -152 78 l-133 68 0 -54z"/>
<path d="M2960 3510 l0 -410 438 -2 437 -3 3 -427 2 -428 405 -2 405 -3 0 843 0 842 -845 0 -845 0 0 -410z"/>
<path d="M950 2985 l0 -845 845 0 845 0 0 845 0 845 -845 0 -845 0 0 -845z"/>
<path d="M2830 2510 l0 -420 420 0 420 0 0 420 0 420 -420 0 -420 0 0 -420z"/>
<path d="M952 1058 l3 -843 840 0 840 0 0 840 0 840 -843 3 -842 2 2 -842z"/>
<path d="M2872 1058 l3 -843 843 -3 842 -2 0 845 0 845 -845 0 -845 0 2 -842z"/>
</g>
</svg>